<?xml version="1.0" encoding="UTF-8" standalone="no"?>
<!DOCTYPE svg  PUBLIC '-//W3C//DTD SVG 1.1//EN'  'http://www.w3.org/Graphics/SVG/1.1/DTD/svg11.dtd'>
<svg xmlns="http://www.w3.org/2000/svg" version="1.1">
<defs>
<font id="Klavika-Light" horiz-adv-x="521">
<font-face x-height="487" cap-height="666" font-weight="300" underline-position="-153" unicode-range="U+0020-FB02" bbox="-14 -210 865 837" units-per-em="1000" underline-thickness="20" panose-1="2 0 0 0 0 0 0 0 0 0" font-family="Klavika Lt" ascent="800" descent="-200"/>
<missing-glyph/>
<glyph unicode=" " horiz-adv-x="220" glyph-name="space"/>
<glyph d="M95 0v86h62v-86h-62zM143 171h-34l-12 168v347h58v-347z" unicode="!" horiz-adv-x="252" glyph-name="exclam"/>
<glyph d="M279 442h-51v244h51v-244zM126 442h-51v244h51v-244z" unicode='&quot;' horiz-adv-x="354" glyph-name="quotedbl"/>
<glyph d="M262 433l-10 -205h195l10 205h-195zM633 179h-136l-9 -179h-53l9 179h-195l-9 -179h-53l9 179h-136l3 49h136l10 205h-136l3 49h136l9 164h53l-9 -164h195l9 164h53l-9 -164h136l-3 -49h-136l-10 -205h136z" unicode="#" horiz-adv-x="719" glyph-name="numbersign"/>
<glyph d="M279 -109h-56v100q-87 3 -153 29l10 47q83 -25 170 -25q46 0 72.5 5.5t40 21t17 34t3.5 54.5q0 27 -0.5 39t-5 28t-12 22.5t-24.5 17t-39 18.5t-59 20q-65 21 -97 35t-50 37t-20.5 44.5t-2.5 71.5q0 88 34.5 124.5t135.5 40.5v100h56v-100q84 -3 135 -17l-7 -49 q-84 15 -158 15q-89 0 -113.5 -19t-24.5 -97q0 -68 13.5 -85t86.5 -42q54 -19 85 -30.5t57.5 -26t38 -25t19.5 -31t9 -38.5t1 -52q0 -90 -34 -126.5t-128 -40.5v-100z" unicode="$" horiz-adv-x="511" glyph-name="dollar"/>
<glyph d="M548 223v-102q0 -43 21.5 -65t71.5 -22t71 21.5t21 65.5v102q0 44 -21 65.5t-71 21.5t-71.5 -22t-21.5 -65zM783 222v-100q0 -132 -142 -132q-143 0 -143 132v100q0 132 143 132q142 0 142 -132zM105 545v-102q0 -43 21.5 -65t71.5 -22t71 21.5t21 65.5v102 q0 44 -21 65.5t-71 21.5t-71.5 -22t-21.5 -65zM340 544v-100q0 -132 -142 -132q-143 0 -143 132v100q0 132 143 132q142 0 142 -132zM579 658l-273 -668l-44 17l273 669z" unicode="%" horiz-adv-x="843" glyph-name="percent"/>
<glyph d="M291 41q69 0 132 15v253h-150q-130 0 -130 -104v-55q0 -61 31.5 -85t116.5 -24zM577 309h-98v-292q-92 -27 -186 -27q-112 0 -160 36.5t-48 120.5v64q0 46 25 81.5t67 44.5q-76 28 -76 115v81q0 143 187 143q90 0 178 -23l-7 -49q-98 20 -173 20q-67 0 -97 -21t-30 -70 v-86q0 -40 26 -63t77 -23h315v-52z" unicode="&amp;" horiz-adv-x="617" glyph-name="ampersand"/>
<glyph d="M126 442h-51v244h51v-244z" unicode="&apos;" horiz-adv-x="201" glyph-name="quotesingle"/>
<glyph d="M271 -125l-42 -29q-154 220 -154 458t154 458l42 -29q-78 -124 -108 -220.5t-30 -208.5t30 -208.5t108 -220.5z" unicode="(" horiz-adv-x="301" glyph-name="parenleft"/>
<glyph d="M72 -154l-42 29q78 124 108 220.5t30 208.5t-30 208.5t-108 220.5l42 29q154 -220 154 -458t-154 -458z" unicode=")" horiz-adv-x="301" glyph-name="parenright"/>
<glyph d="M122 389l81 125h-148v37h150l-82 126l31 20l84 -130l84 130l31 -20l-82 -126h151v-37h-150l82 -125l-31 -20l-85 131l-85 -131z" unicode="*" horiz-adv-x="477" glyph-name="asterisk"/>
<glyph d="M65 217v52h175v178h56v-178h175v-52h-175v-178h-56v178h-175z" unicode="+" horiz-adv-x="536" glyph-name="plus"/>
<glyph d="M89 0v86h62v-86l-48 -108l-28 12l36 96h-22z" unicode="," horiz-adv-x="241" glyph-name="comma"/>
<glyph d="M65 256v49h232v-49h-232z" unicode="-" horiz-adv-x="362" glyph-name="hyphen"/>
<glyph d="M90 0v86h62v-86h-62z" unicode="." horiz-adv-x="242" glyph-name="period"/>
<glyph d="M370 676l-247 -793h-58l246 793h59z" unicode="/" horiz-adv-x="440" glyph-name="slash"/>
<glyph d="M138 481v-316q0 -64 31.5 -93.5t110.5 -29.5t110.5 29.5t31.5 93.5v316q0 64 -31.5 93.5t-110.5 29.5t-110.5 -29.5t-31.5 -93.5zM480 485v-324q0 -171 -200 -171t-200 171v324q0 171 200 171t200 -171z" unicode="0" horiz-adv-x="560" glyph-name="zero"/>
<glyph d="M38 501l-28 48l169 97h52v-646h-58v577z" unicode="1" horiz-adv-x="326" glyph-name="one"/>
<glyph d="M53 0v52q160 199 183 229q66 85 88 123t22 78v16q0 61 -25 83.5t-110 22.5q-68 0 -141 -23l-11 50q73 25 158 25q110 0 148.5 -37.5t38.5 -118.5v-15q0 -51 -22.5 -92.5t-99.5 -144.5q-27 -36 -155 -196h282v-52h-356z" unicode="2" horiz-adv-x="484" glyph-name="two"/>
<glyph d="M55 10l9 50q77 -18 144 -18q79 0 112 21t33 78v64q0 94 -113 94h-134v52h128q107 0 107 91v71q0 50 -27 70.5t-93 20.5t-145 -15l-8 50q77 17 151 17q95 0 137.5 -34.5t42.5 -104.5v-70q0 -48 -17.5 -76t-62.5 -45q92 -20 92 -117v-72q0 -78 -50 -112.5t-155 -34.5 q-80 0 -151 20z" unicode="3" horiz-adv-x="491" glyph-name="three"/>
<glyph d="M86 224h257v362zM500 174h-99v-174h-58v174h-313v62l293 410h78v-422h99v-50z" unicode="4" horiz-adv-x="540" glyph-name="four"/>
<glyph d="M90 309v337h330v-52h-272v-233q23 -1 58.5 -1.5t56.5 -0.5q162 -3 162 -153v-55q0 -81 -44.5 -121t-152.5 -40q-100 0 -163 22l10 48q68 -18 153 -18q79 0 109 25t30 88v43q0 59 -24 83.5t-91 25.5q-27 0 -82 0.5t-80 1.5z" unicode="5" horiz-adv-x="495" glyph-name="five"/>
<glyph d="M279 308q-69 0 -141 -30v-131q0 -58 33 -81.5t98 -23.5q70 0 98 24t28 81v60q0 55 -24 78t-92 23zM138 430v-96q64 26 143 26q96 0 134 -38.5t38 -117.5v-55q0 -79 -42.5 -119t-141.5 -40t-144 40.5t-45 118.5v282q0 123 52 174t192 51q66 0 114 -14l-7 -49 q-48 11 -97 11q-122 0 -159 -35.5t-37 -138.5z" unicode="6" horiz-adv-x="518" glyph-name="six"/>
<glyph d="M30 594v52h374v-49l-280 -597h-59l280 594h-315z" unicode="7" horiz-adv-x="427" glyph-name="seven"/>
<glyph d="M150 483q0 -44 26 -69.5t101 -57.5q75 33 101 57.5t26 69.5v25q0 48 -28.5 72t-98.5 24t-98.5 -24t-28.5 -72v-25zM421 167q0 48 -28.5 73.5t-115.5 61.5q-86 -34 -115 -60t-29 -75v-20q0 -59 32 -82t112 -23t112 23t32 82v20zM462 487q0 -55 -25 -91t-93 -66 q75 -33 105 -70.5t30 -95.5v-20q0 -80 -48 -117t-154 -37t-154 37t-48 117v20q0 58 29.5 95.5t103.5 70.5q-65 30 -90.5 68.5t-25.5 88.5v13q0 156 185 156t185 -156v-13z" unicode="8" horiz-adv-x="554" glyph-name="eight"/>
<glyph d="M234 338q69 0 141 30v131q0 58 -33 81.5t-98 23.5q-70 0 -98 -24t-28 -81v-60q0 -55 24 -78t92 -23zM375 216v96q-64 -26 -143 -26q-96 0 -134 38.5t-38 117.5v55q0 78 43.5 118.5t140.5 40.5q100 0 144.5 -39.5t44.5 -119.5v-282q0 -124 -51 -174.5t-193 -50.5 q-63 0 -114 15l7 49q52 -12 97 -12q65 0 103 8t59 30t27.5 52t6.5 84z" unicode="9" horiz-adv-x="513" glyph-name="nine"/>
<glyph d="M90 320v86h62v-86h-62zM90 0v86h62v-86h-62z" unicode=":" horiz-adv-x="242" glyph-name="colon"/>
<glyph d="M89 320v86h62v-86h-62zM89 0v86h62v-86l-48 -108l-28 12l36 96h-22z" unicode=";" horiz-adv-x="241" glyph-name="semicolon"/>
<glyph d="M50 223v42l398 232l25 -42l-365 -211l367 -212l-25 -42z" unicode="&lt;" horiz-adv-x="550" glyph-name="less"/>
<glyph d="M80 137v47h349v-47h-349zM80 309v47h349v-47h-349z" unicode="=" horiz-adv-x="509" glyph-name="equal"/>
<glyph d="M500 265v-42l-400 -233l-25 42l367 212l-365 211l25 42z" unicode="&gt;" horiz-adv-x="550" glyph-name="greater"/>
<glyph d="M154 0v96h62v-96h-62zM188 231l-34 44q84 66 109 87q48 40 57.5 63t9.5 93q0 41 -3.5 62.5t-16.5 37.5t-37.5 21t-68.5 5q-64 0 -134 -15l-10 50q71 17 146 17q111 0 146.5 -38.5t35.5 -137.5q0 -88 -15.5 -121.5t-80.5 -84.5q-24 -19 -58.5 -46.5t-45.5 -36.5z" unicode="?" horiz-adv-x="458" glyph-name="question"/>
<glyph d="M258 290l19 112q8 49 33 69.5t80 20.5q65 0 118 -25l-37 -212q18 -9 40 -9q64 0 94.5 42.5t30.5 110.5q0 110 -66.5 170.5t-184.5 60.5q-114 0 -191.5 -82.5t-77.5 -214.5q0 -136 77 -216t227 -80q96 0 194 43l15 -40q-91 -50 -209 -50q-165 0 -260 93t-95 250 q0 150 91.5 246.5t228.5 96.5q144 0 222.5 -76t78.5 -199q0 -90 -45 -144t-130 -54q-51 0 -79 31q-56 -28 -104 -28q-36 0 -54 17.5t-18 47.5q0 5 2 19zM427 279l28 159q-41 11 -71 11q-29 0 -42 -10.5t-18 -36.5q-3 -20 -10 -57.5t-10 -57.5q-1 -5 -1 -14q0 -14 8 -19 t29 -5q44 0 87 30z" unicode="@" horiz-adv-x="751" glyph-name="at"/>
<glyph d="M310 632l-137 -406h274zM528 0l-63 175h-310l-62 -175h-58l232 666h87l232 -666h-58z" unicode="A" horiz-adv-x="621" glyph-name="A"/>
<glyph d="M424 458v85q0 71 -83 71h-192v-247h172q52 0 77.5 24.5t25.5 66.5zM445 136v85q0 44 -27 69t-83 25h-186v-263h203q93 0 93 84zM351 0h-261v666h250q69 0 106 -33t37 -98v-80q0 -80 -76 -108q41 -6 69 -38.5t28 -85.5v-87q0 -66 -42.5 -101t-110.5 -35z" unicode="B" horiz-adv-x="559" glyph-name="B"/>
<glyph d="M134 482v-298q0 -78 38 -109.5t129 -31.5q75 0 148 13l7 -51q-75 -15 -160 -15q-117 0 -169 48.5t-52 144.5v300q0 96 52 144.5t169 48.5q85 0 160 -15l-7 -51q-73 13 -148 13q-91 0 -129 -31.5t-38 -109.5z" unicode="C" horiz-adv-x="511" glyph-name="C"/>
<glyph d="M149 613v-560h162q82 0 115 33.5t33 107.5v278q0 74 -33 107.5t-115 33.5h-162zM90 666h220q114 0 161 -52t47 -145v-272q0 -93 -47 -145t-161 -52h-220v666z" unicode="D" horiz-adv-x="590" glyph-name="D"/>
<glyph d="M90 0v666h375v-53h-316v-247h294v-53h-294v-260h317v-53h-376z" unicode="E" horiz-adv-x="536" glyph-name="E"/>
<glyph d="M149 0h-59v666h379v-53h-320v-257h298v-53h-298v-303z" unicode="F" horiz-adv-x="511" glyph-name="F"/>
<glyph d="M134 481v-296q0 -76 33.5 -109t124.5 -33q78 0 140 15v236h59v-276q-96 -28 -203 -28q-117 0 -165 48t-48 146v298q0 97 51.5 145.5t169.5 48.5q101 0 183 -18l-6 -51q-100 16 -176 16q-92 0 -127.5 -32t-35.5 -110z" unicode="G" horiz-adv-x="571" glyph-name="G"/>
<glyph d="M530 0h-59v316h-322v-316h-59v666h59v-297h322v297h59v-666z" unicode="H" horiz-adv-x="620" glyph-name="H"/>
<glyph d="M154 666v-666h-59v666h59z" unicode="I" horiz-adv-x="249" glyph-name="I"/>
<glyph d="M90 666h59v-660q0 -61 -16.5 -87.5t-103.5 -111.5l-39 42q73 72 86.5 92.5t13.5 58.5v666z" unicode="J" horiz-adv-x="234" glyph-name="J"/>
<glyph d="M510 666l-267 -327l286 -339h-74l-283 339l265 327h73zM149 666v-666h-59v666h59z" unicode="K" horiz-adv-x="569" glyph-name="K"/>
<glyph d="M149 666v-613h300v-53h-359v666h59z" unicode="L" horiz-adv-x="494" glyph-name="L"/>
<glyph d="M651 0l-14 607l-194 -521h-91l-194 521l-14 -607h-59l20 666h86l207 -544l206 544h86l20 -666h-59z" unicode="M" horiz-adv-x="795" glyph-name="M"/>
<glyph d="M462 0l-316 608v-608h-56v666h86l316 -609v609h56v-666h-86z" unicode="N" horiz-adv-x="638" glyph-name="N"/>
<glyph d="M308 43q93 0 133.5 36.5t40.5 110.5v286q0 74 -40.5 110.5t-133.5 36.5t-133.5 -36.5t-40.5 -110.5v-286q0 -74 40.5 -110.5t133.5 -36.5zM541 188q0 -92 -55.5 -145t-177.5 -53t-177.5 53t-55.5 145v290q0 92 55.5 145t177.5 53t177.5 -53t55.5 -145v-290z" unicode="O" horiz-adv-x="616" glyph-name="O"/>
<glyph d="M440 512q0 54 -29.5 77.5t-93.5 23.5h-168v-306h168q64 0 93.5 23.5t29.5 77.5v104zM90 0v666h226q183 0 183 -154v-104q0 -154 -183 -154h-167v-254h-59z" unicode="P" horiz-adv-x="544" glyph-name="P"/>
<glyph d="M308 43q93 0 133.5 36.5t40.5 110.5v286q0 74 -40.5 110.5t-133.5 36.5t-133.5 -36.5t-40.5 -110.5v-286q0 -74 40.5 -110.5t133.5 -36.5zM425 -139l-54 -23l-66 152q-230 1 -230 198v290q0 92 55.5 145t177.5 53t177.5 -53t55.5 -145v-290q0 -169 -174 -194z" unicode="Q" horiz-adv-x="616" glyph-name="Q"/>
<glyph d="M450 512q0 54 -29.5 77.5t-93.5 23.5h-178v-304h178q64 0 93.5 23.5t29.5 77.5v102zM512 0l-173 256h-13h-177v-256h-59v666h236q183 0 183 -154v-102q0 -120 -108 -146l178 -264h-67z" unicode="R" horiz-adv-x="619" glyph-name="R"/>
<glyph d="M469 165q0 -89 -43.5 -132t-162.5 -43q-105 0 -188 32l11 48q90 -27 179 -27q83 0 114 26.5t31 92.5q0 31 -0.5 44.5t-5.5 31.5t-12.5 24.5t-26.5 16.5t-41.5 16t-62.5 15q-63 14 -96.5 27t-53 37t-24.5 52.5t-5 83.5q0 87 44 126.5t163 39.5q92 0 172 -23l-7 -50 q-89 20 -163 20q-65 0 -97.5 -12.5t-42.5 -35t-10 -67.5q0 -46 1.5 -64.5t18.5 -36.5t40.5 -25t82.5 -22q46 -12 75 -21t51 -21.5t32.5 -23.5t17 -32.5t8 -41t1.5 -55.5z" unicode="S" horiz-adv-x="544" glyph-name="S"/>
<glyph d="M230 0v613h-205v53h469v-53h-205v-613h-59z" unicode="T" horiz-adv-x="519" glyph-name="T"/>
<glyph d="M486 666h59v-477q0 -90 -57 -144.5t-173 -54.5t-173 54.5t-57 144.5v477h59v-477q0 -70 44 -108t127 -38t127 38t44 108v477z" unicode="U" horiz-adv-x="630" glyph-name="U"/>
<glyph d="M295 53l217 613h58l-235 -666h-80l-235 666h58z" unicode="V" horiz-adv-x="590" glyph-name="V"/>
<glyph d="M593 0l-148 624l-148 -624h-92l-180 666h57l167 -621l149 621h94l149 -621l167 621h57l-180 -666h-92z" unicode="W" horiz-adv-x="890" glyph-name="W"/>
<glyph d="M35 0l223 338l-216 328h64l184 -281l184 281h64l-216 -328l223 -338h-64l-191 291l-191 -291h-64z" unicode="X" horiz-adv-x="580" glyph-name="X"/>
<glyph d="M76 666l195 -402l196 402h61l-227 -461v-205h-59v205l-227 461h61z" unicode="Y" horiz-adv-x="543" glyph-name="Y"/>
<glyph d="M499 613l-364 -560h371v-53h-436v53l363 560h-353v53h419v-53z" unicode="Z" horiz-adv-x="576" glyph-name="Z"/>
<glyph d="M281 -126h-181v916h181v-54h-123v-808h123v-54z" unicode="[" horiz-adv-x="311" glyph-name="bracketleft"/>
<glyph d="M317 -117l-247 793h59l246 -793h-58z" unicode="\" horiz-adv-x="440" glyph-name="backslash"/>
<glyph d="M211 -126h-181v54h123v808h-123v54h181v-916z" unicode="]" horiz-adv-x="311" glyph-name="bracketright"/>
<glyph d="M97 381l-47 26l145 279h64l145 -279l-47 -26l-130 251z" unicode="^" horiz-adv-x="454" glyph-name="asciicircum"/>
<glyph d="M430 -36h-426v26h426v-26z" unicode="_" horiz-adv-x="434" glyph-name="underscore"/>
<glyph d="M235 587l-27 -41q-81 45 -133 83l29 44q52 -37 131 -86z" unicode="`" horiz-adv-x="310" glyph-name="grave"/>
<glyph d="M352 92v117h-142q-50 0 -68.5 -18t-18.5 -66q0 -46 15.5 -64.5t64.5 -18.5q78 0 149 50zM410 356v-356h-50l-4 38q-78 -48 -165 -48q-126 0 -126 136q0 75 34 105t109 30h144v95q0 49 -27 69t-88 20q-64 0 -144 -16l-9 49q67 19 150 19q92 0 134 -35.5t42 -105.5z" unicode="a" horiz-adv-x="485" glyph-name="a"/>
<glyph d="M143 399v-346q54 -10 112 -10q74 0 102 29t28 88v196q0 44 -21 64.5t-69 20.5q-78 0 -152 -42zM443 355v-193q0 -86 -44.5 -129t-150.5 -43q-89 0 -163 18v678l58 8v-234q70 37 160 37q71 0 105.5 -37.5t34.5 -104.5z" unicode="b" horiz-adv-x="508" glyph-name="b"/>
<glyph d="M113 331v-175q0 -64 28.5 -89t97.5 -25q45 0 104 10l7 -48q-53 -14 -111 -14q-99 0 -141.5 42.5t-42.5 125.5v171q0 83 42.5 125.5t141.5 42.5q58 0 111 -14l-7 -48q-59 10 -104 10q-69 0 -97.5 -25t-28.5 -89z" unicode="c" horiz-adv-x="400" glyph-name="c"/>
<glyph d="M370 104v324q-82 17 -152 17q-47 0 -68.5 -24t-21.5 -74v-222q0 -44 18 -63.5t66 -19.5q81 0 158 62zM70 125v222q0 150 150 150q69 0 150 -16v205l58 8v-694h-53l-3 46q-74 -56 -164 -56q-138 0 -138 135z" unicode="d" horiz-adv-x="513" glyph-name="d"/>
<glyph d="M118 322v-44h244v44q0 64 -27 94.5t-93 30.5t-95 -31t-29 -94zM118 165q0 -67 28 -95.5t99 -28.5q69 0 154 23l10 -47q-76 -27 -168 -27q-98 0 -139.5 46t-41.5 131v153q0 177 182 177q177 0 177 -177v-94h-301v-61z" unicode="e" horiz-adv-x="479" glyph-name="e"/>
<glyph d="M352 692l-8 -45q-48 9 -88 9q-41 0 -56.5 -17t-15.5 -57v-95h150l-6 -50h-144v-437h-58v437h-91v50h91v102q0 58 33.5 87.5t92.5 29.5q55 0 100 -14z" unicode="f" horiz-adv-x="357" glyph-name="f"/>
<glyph d="M383 328q0 66 -29 92.5t-102 26.5t-102 -26t-29 -93v-10q0 -67 31 -93t100 -26q68 0 99.5 27t31.5 92v10zM439 320q0 -171 -187 -171q-35 0 -65 6q-38 -31 -38 -64q0 -31 44 -35q46 -4 140 -11q65 -5 93 -34t28 -82q0 -76 -45 -106t-163 -30q-88 0 -171 24l9 46 q87 -20 164 -20q93 0 121 18.5t28 64.5q0 36 -17.5 52t-60.5 19q-93 6 -132 9q-96 8 -96 86q0 48 46 82q-72 41 -72 146v6q0 86 43.5 128.5t143.5 42.5q49 0 82 -10h134v-42l-61 -5q32 -41 32 -114v-6z" unicode="g" horiz-adv-x="513" glyph-name="g"/>
<glyph d="M441 0h-58v394q0 49 -53 49q-31 0 -87 -16.5t-100 -39.5v-387h-58v686l58 8v-250q110 53 195 53q103 0 103 -110v-387z" unicode="h" glyph-name="h"/>
<glyph d="M143 579h-58v107h58v-107zM143 0h-58v487h58v-487z" unicode="i" horiz-adv-x="228" glyph-name="i"/>
<glyph d="M143 579h-58v107h58v-107zM85 487h58v-522q0 -52 -16.5 -76t-96.5 -96l-38 42q66 59 79.5 78t13.5 61v513z" unicode="j" horiz-adv-x="223" glyph-name="j"/>
<glyph d="M361 487h72l-194 -240l202 -247h-74l-198 247zM143 0h-58v686l58 8v-694z" unicode="k" horiz-adv-x="471" glyph-name="k"/>
<glyph d="M143 0h-58v686l58 8v-694z" unicode="l" horiz-adv-x="228" glyph-name="l"/>
<glyph d="M739 0h-58v394q0 49 -53 49q-34 0 -87.5 -16t-99.5 -40v-387h-58v394q0 49 -53 49q-31 0 -87 -16.5t-100 -39.5v-387h-58v487h51l4 -44q44 21 100.5 37.5t97.5 16.5q73 0 94 -54q46 21 104.5 37.5t99.5 16.5q103 0 103 -110v-387z" unicode="m" horiz-adv-x="819" glyph-name="m"/>
<glyph d="M441 0h-58v394q0 49 -53 49q-31 0 -87 -16.5t-100 -39.5v-387h-58v487h51l4 -44q44 21 100.5 37.5t97.5 16.5q103 0 103 -110v-387z" unicode="n" glyph-name="n"/>
<glyph d="M380 165v157q0 62 -31.5 92.5t-99.5 30.5t-99.5 -30.5t-31.5 -92.5v-157q0 -62 31.5 -92.5t99.5 -30.5t99.5 30.5t31.5 92.5zM438 167q0 -81 -46 -129t-143 -48t-143 48t-46 129v153q0 81 46 129t143 48t143 -48t46 -129v-153z" unicode="o" horiz-adv-x="498" glyph-name="o"/>
<glyph d="M143 383v-324q82 -17 152 -17q47 0 68.5 24t21.5 74v222q0 44 -18 63.5t-66 19.5q-81 0 -158 -62zM443 362v-222q0 -150 -150 -150q-69 0 -150 16v-203l-58 -8v692h53l3 -46q74 56 164 56q138 0 138 -135z" unicode="p" horiz-adv-x="511" glyph-name="p"/>
<glyph d="M365 88v346q-54 10 -112 10q-74 0 -102 -29t-28 -88v-196q0 -44 21 -64.5t69 -20.5q78 0 152 42zM65 132v193q0 86 44.5 129t150.5 43q89 0 163 -18v-676l-58 -8v232q-70 -37 -160 -37q-71 0 -105.5 37.5t-34.5 104.5z" unicode="q" horiz-adv-x="508" glyph-name="q"/>
<glyph d="M290 497l7 -57q-51 -22 -154 -90v-350h-58v487h52l3 -74q100 66 150 84z" unicode="r" horiz-adv-x="312" glyph-name="r"/>
<glyph d="M375 123q0 -70 -34.5 -101.5t-127.5 -31.5q-83 0 -143 25l10 47q65 -20 129 -20q66 0 87 16t21 63q0 30 -1.5 42.5t-14 25t-32.5 18.5t-65 17q-61 14 -89 32.5t-35.5 42.5t-7.5 73q0 63 36 94t123 31q79 0 138 -17l-6 -49q-68 14 -136 14q-61 0 -79 -16t-18 -59 q0 -51 13.5 -65.5t80.5 -31.5q55 -14 84 -25t44.5 -30t19 -37.5t3.5 -57.5z" unicode="s" horiz-adv-x="435" glyph-name="s"/>
<glyph d="M325 54l11 -45q-48 -19 -102 -19q-58 0 -84 24t-26 81v342h-94v50h94v115l58 8v-123h149l-6 -50h-143v-336q0 -35 10.5 -48t45.5 -13q42 0 87 14z" unicode="t" horiz-adv-x="371" glyph-name="t"/>
<glyph d="M80 487h58v-394q0 -49 53 -49q31 0 87 16.5t100 39.5v387h58v-487h-51l-4 44q-44 -21 -100.5 -37.5t-97.5 -16.5q-103 0 -103 110v387z" unicode="u" glyph-name="u"/>
<glyph d="M434 487l-165 -487h-89l-165 487h59l150 -446l151 446h59z" unicode="v" horiz-adv-x="449" glyph-name="v"/>
<glyph d="M223 0h-87l-111 487h55l100 -448l132 448h78l131 -448l101 448h55l-111 -487h-87l-128 445z" unicode="w" horiz-adv-x="702" glyph-name="w"/>
<glyph d="M88 0h-63l164 245l-161 242h62l130 -195l131 195h62l-162 -242l165 -245h-63l-133 199z" unicode="x" horiz-adv-x="441" glyph-name="x"/>
<glyph d="M434 487l-165 -487l-72 -197h-57l73 197h-33l-165 487h59l150 -446l151 446h59z" unicode="y" horiz-adv-x="444" glyph-name="y"/>
<glyph d="M62 440l1 47h316l-1 -47l-262 -393h271v-47h-332v47l263 393h-256z" unicode="z" horiz-adv-x="437" glyph-name="z"/>
<glyph d="M60 350h16q24 0 34 9.5t10 31.5v300q0 99 100 99h69v-52h-73q-38 0 -38 -40v-304q0 -69 -63 -70q63 -3 63 -70v-304q0 -40 38 -40h73v-52h-69q-100 0 -100 99v300q0 22 -10 31.5t-34 9.5h-16v52z" unicode="{" horiz-adv-x="309" glyph-name="braceleft"/>
<glyph d="M144 790v-1000h-39v1000h39z" unicode="|" horiz-adv-x="249" glyph-name="bar"/>
<glyph d="M233 350h16v-52h-16q-24 0 -34 -9.5t-10 -31.5v-300q0 -99 -100 -99h-69v52h73q38 0 38 40v304q0 67 63 70q-63 1 -63 70v304q0 40 -38 40h-73v52h69q100 0 100 -99v-300q0 -22 10 -31.5t34 -9.5z" unicode="}" horiz-adv-x="309" glyph-name="braceright"/>
<glyph d="M414 342l41 -18q-17 -51 -45 -82.5t-76 -31.5q-31 0 -60.5 19.5t-55 39t-47.5 19.5q-28 0 -44 -19t-35 -64l-42 19q44 113 123 113q39 0 88 -40t75 -40q21 0 37 14t22.5 28t18.5 43z" unicode="~" horiz-adv-x="495" glyph-name="asciitilde"/>
<glyph unicode=" " horiz-adv-x="220" glyph-name="nbspace"/>
<glyph d="M95 401v86h62v-86h-62zM109 316h34l12 -168v-345h-58v345z" unicode="¡" horiz-adv-x="252" glyph-name="exclamdown"/>
<glyph d="M213 -10v91q-82 6 -117.5 48.5t-35.5 118.5v171q0 76 35.5 118.5t117.5 48.5v91h56v-91q51 -4 86 -13l-7 -48q-59 10 -104 10q-69 0 -97.5 -25t-28.5 -89v-175q0 -64 28.5 -89t97.5 -25q45 0 104 10l7 -48q-40 -11 -86 -14v-90h-56z" unicode="¢" horiz-adv-x="420" glyph-name="cent"/>
<glyph d="M80 307v50h93q-49 77 -49 153q0 77 41 111.5t141 34.5q75 0 146 -20l-9 -50q-67 18 -135 18q-75 0 -100.5 -19.5t-25.5 -76.5q0 -67 54 -151h199l-4 -50h-174q11 -22 11 -58q0 -96 -95 -197h297v-52h-374v52q51 41 82.5 94t31.5 102q0 31 -13 59h-117z" unicode="£" horiz-adv-x="545" glyph-name="sterling"/>
<glyph d="M171 394v-118q0 -50 19.5 -71.5t79.5 -21.5q59 0 78.5 21.5t19.5 71.5v118q0 50 -19.5 71.5t-78.5 21.5q-60 0 -79.5 -21.5t-19.5 -71.5zM465 547l-63 -63q20 -30 20 -77v-144q0 -47 -20 -77l63 -63l-38 -38l-66 66q-35 -18 -91 -18t-92 17l-65 -65l-38 38l62 62 q-20 30 -20 78v144q0 47 20 77l-62 63l38 38l65 -66q35 18 92 18q53 0 91 -18l66 66z" unicode="¤" horiz-adv-x="540" glyph-name="currency"/>
<glyph d="M67 309v47h101l-143 290h61l185 -382l186 382h61l-143 -290h101v-47h-124l-51 -104v-21h175v-45h-175v-139h-59v139h-175v45h175v21l-51 104h-124z" unicode="¥" horiz-adv-x="543" glyph-name="yen"/>
<glyph d="M144 -210h-39v417h39v-417zM144 790v-417h-39v417h39z" unicode="¦" horiz-adv-x="249" glyph-name="brokenbar"/>
<glyph d="M309 474l52 16q64 -189 99 -325.5t35 -240.5q0 -59 -30.5 -84.5t-95.5 -25.5q-75 0 -147 24l9 45q81 -19 134 -19q45 0 58.5 12.5t13.5 51.5q0 68 -21 168.5t-43 174t-64 203.5zM256 16l-52 -16q-64 189 -99 325.5t-35 240.5q0 59 31 84.5t95 25.5q75 0 147 -24l-9 -45 q-81 19 -134 19q-45 0 -58.5 -12.5t-13.5 -51.5q0 -68 21 -168.5t43 -174t64 -203.5z" unicode="§" horiz-adv-x="560" glyph-name="section"/>
<glyph d="M250 558v66h62v-66h-62zM80 558v66h62v-66h-62z" unicode="¨" horiz-adv-x="392" glyph-name="dieresis"/>
<glyph d="M295 261v144q0 53 27.5 77.5t92.5 24.5q51 0 101 -12l-5 -39q-47 10 -93 10q-47 0 -63 -12.5t-16 -49.5v-142q0 -37 16 -49.5t63 -12.5q46 0 93 10l5 -39q-50 -12 -101 -12q-65 0 -92.5 24.5t-27.5 77.5zM118 333q0 -128 80.5 -213.5t214.5 -85.5t214.5 85.5t80.5 213.5 t-80.5 214t-214.5 86t-214.5 -86t-80.5 -214zM70 333q0 146 95.5 245t247.5 99t247.5 -99t95.5 -245q0 -145 -95.5 -244t-247.5 -99t-247.5 99t-95.5 244z" unicode="©" horiz-adv-x="826" glyph-name="copyright"/>
<glyph d="M250 453v66h-79q-29 0 -38.5 -8.5t-9.5 -36.5t11.5 -38t37.5 -10q41 0 78 27zM293 616v-222h-37l-3 20q-43 -26 -83 -26q-90 0 -90 86q0 49 20.5 66.5t68.5 17.5h81v56q0 24 -14 34t-47 10q-44 0 -90 -11l-7 37q45 12 95 12q57 0 81.5 -19.5t24.5 -60.5z" unicode="ª" horiz-adv-x="378" glyph-name="ordfeminine"/>
<glyph d="M241 244l128 193l44 -30l-108 -163l108 -163l-44 -30zM55 244l128 193l44 -30l-108 -163l108 -163l-44 -30z" unicode="«" horiz-adv-x="478" glyph-name="guillemotleft"/>
<glyph d="M65 217v52h406v-230h-54v178h-352z" unicode="¬" horiz-adv-x="566" glyph-name="logicalnot"/>
<glyph d="M287 559q0 12 -6 16.5t-20 4.5h-40v-67h40q26 0 26 21v25zM303 436l-42 55h-40v-55h-24v166h64q50 0 50 -43v-25q0 -27 -24 -38l45 -60h-29zM105 515q0 -63 38.5 -105t107.5 -42t107 41.5t38 105.5t-38 106t-107 42t-107.5 -42t-38.5 -106zM70 515q0 77 49.5 129 t131.5 52t131 -52t49 -129t-49 -129t-131 -52t-131.5 52t-49.5 129z" unicode="®" horiz-adv-x="501" glyph-name="registered"/>
<glyph d="M70 566v48h236v-48h-236z" unicode="¯" horiz-adv-x="376" glyph-name="macron"/>
<glyph d="M247 551q0 30 -18 51.5t-50 21.5t-50 -21.5t-18 -51.5t18 -51t50 -21t50 21t18 51zM283 551q0 -45 -28 -74.5t-76 -29.5q-49 0 -76.5 29.5t-27.5 74.5t28 75t76 30t76 -30t28 -75z" unicode="°" horiz-adv-x="358" glyph-name="degree"/>
<glyph d="M486 52v-52h-406v52h406zM80 297v52h175v178h56v-178h175v-52h-175v-178h-56v178h-175z" unicode="±" horiz-adv-x="566" glyph-name="plusminus"/>
<glyph d="M75 243v40q2 3 34 42.5t68 86.5q33 43 48 68t17.5 35t2.5 29v13q0 31 -12.5 42.5t-57.5 11.5q-33 0 -91 -13l-8 42q46 16 101 16q118 0 118 -93v-26q0 -27 -13 -55t-55 -83q-55 -72 -85 -110h159v-46h-226z" unicode="²" horiz-adv-x="386" glyph-name="twosuperior"/>
<glyph d="M70 249l7 42q44 -12 91 -12q45 0 61.5 12.5t16.5 44.5v36q0 53 -63 53h-83v45h84q53 0 53 45v49q0 27 -15.5 37.5t-51.5 10.5q-42 0 -87 -9l-7 41q40 12 92 12q117 0 117 -90v-50q0 -46 -41 -68q50 -19 50 -75v-38q0 -53 -30 -76.5t-100 -23.5q-44 0 -94 14z" unicode="³" horiz-adv-x="374" glyph-name="threesuperior"/>
<glyph d="M102 546l-27 41q79 49 131 86l29 -44q-52 -38 -133 -83z" unicode="´" horiz-adv-x="310" glyph-name="acute"/>
<glyph d="M80 -197v684h58v-394q0 -49 53 -49q31 0 87 16.5t100 39.5v387h58v-487h-51l-4 44q-44 -21 -100.5 -37.5t-97.5 -16.5q-24 0 -45 7v-194h-58z" unicode="µ" glyph-name="mu"/>
<glyph d="M75 464q0 86 58 144t144 58v-403q-86 0 -144 57.5t-58 143.5zM346 666h56v-724q0 -29 -15.5 -50t-95.5 -99l-34 38q62 62 75.5 78.5t13.5 30.5v726z" unicode="¶" horiz-adv-x="502" glyph-name="paragraph"/>
<glyph d="M90 277v86h62v-86h-62z" unicode="·" horiz-adv-x="242" glyph-name="periodcentered"/>
<glyph d="M243 -130q0 -34 -25 -55.5t-70 -21.5q-38 0 -78 14l9 35q32 -9 61 -9q57 0 57 35q0 31 -47 31q-30 0 -58 -6l23 107h42l-15 -70q14 3 28 3q32 0 52.5 -16t20.5 -47z" unicode="¸" horiz-adv-x="313" glyph-name="cedilla"/>
<glyph d="M80 546l-20 37l109 63h40v-405h-50v347z" unicode="¹" horiz-adv-x="329" glyph-name="onesuperior"/>
<glyph d="M270 496v93q0 69 -74 69q-73 0 -73 -69v-93q0 -70 73 -70q74 0 74 70zM312 588v-91q0 -50 -28 -79.5t-88 -29.5t-88 29.5t-28 79.5v91q0 49 28 78.5t88 29.5q111 0 116 -108z" unicode="º" horiz-adv-x="392" glyph-name="ordmasculine"/>
<glyph d="M109 442l128 -193l-128 -193l-44 30l108 163l-108 163zM295 442l128 -193l-128 -193l-44 30l108 163l-108 163z" unicode="»" horiz-adv-x="478" glyph-name="guillemotright"/>
<glyph d="M494 135h133v217zM734 91h-59v-91h-48v91h-184v48l170 266h62v-270h59v-44zM80 546l-20 37l109 63h40v-405h-50v347zM526 656l-261 -682l-42 16l262 682z" unicode="¼" horiz-adv-x="819" glyph-name="onequarter"/>
<glyph d="M517 0v40q2 3 34 42.5t68 86.5q33 43 48 68t17.5 35t2.5 29v13q0 31 -12.5 42.5t-57.5 11.5q-33 0 -91 -13l-8 42q46 16 101 16q118 0 118 -93v-26q0 -27 -13 -55t-55 -83q-55 -72 -85 -110h159v-46h-226zM80 546l-20 37l109 63h40v-405h-50v347zM526 656l-261 -682 l-42 16l262 682z" unicode="½" horiz-adv-x="828" glyph-name="onehalf"/>
<glyph d="M70 249l7 42q44 -12 91 -12q45 0 61.5 12.5t16.5 44.5v36q0 53 -63 53h-83v45h84q53 0 53 45v49q0 27 -15.5 37.5t-51.5 10.5q-42 0 -87 -9l-7 41q40 12 92 12q117 0 117 -90v-50q0 -46 -41 -68q50 -19 50 -75v-38q0 -53 -30 -76.5t-100 -23.5q-44 0 -94 14zM524 135h133 v217zM764 91h-59v-91h-48v91h-184v48l170 266h62v-270h59v-44zM556 656l-261 -682l-42 16l262 682z" unicode="¾" horiz-adv-x="849" glyph-name="threequarters"/>
<glyph d="M304 487v-96h-62v96h62zM270 258l34 -44q-84 -66 -109 -87q-48 -40 -57.5 -63t-9.5 -93q0 -41 3.5 -62.5t16.5 -37.5t37.5 -21t68.5 -5q64 0 134 15l10 -50q-71 -17 -146 -17q-111 0 -146.5 38.5t-35.5 137.5q0 88 15.5 121.5t80.5 84.5q24 19 58.5 46.5t45.5 36.5z" unicode="¿" horiz-adv-x="458" glyph-name="questiondown"/>
<glyph d="M338 757l-27 -41q-59 31 -124 77l29 44q49 -36 122 -80zM310 632l-137 -406h274zM528 0l-63 175h-310l-62 -175h-58l232 666h87l232 -666h-58z" unicode="À" horiz-adv-x="621" glyph-name="Agrave"/>
<glyph d="M309 716l-27 41q73 44 122 80l29 -44q-65 -46 -124 -77zM310 632l-137 -406h274zM528 0l-63 175h-310l-62 -175h-58l232 666h87l232 -666h-58z" unicode="Á" horiz-adv-x="621" glyph-name="Aacute"/>
<glyph d="M208 716l-22 39q65 40 125 82q72 -51 124 -82l-21 -39q-42 22 -103 60q-74 -45 -103 -60zM310 632l-137 -406h274zM528 0l-63 175h-310l-62 -175h-58l232 666h87l232 -666h-58z" unicode="Â" horiz-adv-x="621" glyph-name="Acircumflex"/>
<glyph d="M314 741q-40 18 -56 18q-26 0 -54 -28l-26 29q33 49 82 49q19 0 54 -16q40 -18 57 -18q26 0 48 25l29 -26q-30 -49 -77 -49q-22 0 -57 16zM310 632l-137 -406h274zM528 0l-63 175h-310l-62 -175h-58l232 666h87l232 -666h-58z" unicode="Ã" horiz-adv-x="621" glyph-name="Atilde"/>
<glyph d="M363 734v60h66v-60h-66zM191 734v60h66v-60h-66zM310 632l-137 -406h274zM528 0l-63 175h-310l-62 -175h-58l232 666h87l232 -666h-58z" unicode="Ä" horiz-adv-x="621" glyph-name="Adieresis"/>
<glyph d="M339 755q0 32 -29 32q-30 0 -30 -32t30 -32q29 0 29 32zM373 755q0 -27 -16.5 -44.5t-46.5 -17.5t-46.5 17.5t-16.5 44.5q0 28 16.5 44.5t46.5 16.5t46.5 -16.5t16.5 -44.5zM310 632l-137 -406h274zM528 0l-63 175h-310l-62 -175h-58l232 666h87l232 -666h-58z" unicode="Å" horiz-adv-x="621" glyph-name="Aring"/>
<glyph d="M310 632l-137 -406h274zM528 0l-63 175h-310l-62 -175h-58l232 666h501v-53h-396l83 -237h291v-53h-273l94 -270h202v-53h-241z" unicode="Æ" horiz-adv-x="839" glyph-name="AE"/>
<glyph d="M393 -130q0 -34 -25 -55.5t-70 -21.5q-38 0 -78 14l9 35q32 -9 61 -9q57 0 57 35q0 31 -47 31q-30 0 -58 -6l21 98q-99 7 -143.5 55t-44.5 137v300q0 96 52 144.5t169 48.5q85 0 160 -15l-7 -51q-73 13 -148 13q-91 0 -129 -31.5t-38 -109.5v-298q0 -78 38 -109.5 t129 -31.5q75 0 148 13l7 -51q-69 -13 -151 -15l-13 -60q14 3 28 3q32 0 52.5 -16t20.5 -47z" unicode="Ç" horiz-adv-x="511" glyph-name="Ccedilla"/>
<glyph d="M322 757l-27 -41q-59 31 -124 77l29 44q49 -36 122 -80zM90 0v666h375v-53h-316v-247h294v-53h-294v-260h317v-53h-376z" unicode="È" horiz-adv-x="536" glyph-name="Egrave"/>
<glyph d="M257 716l-27 41q73 44 122 80l29 -44q-65 -46 -124 -77zM90 0v666h375v-53h-316v-247h294v-53h-294v-260h317v-53h-376z" unicode="É" horiz-adv-x="536" glyph-name="Eacute"/>
<glyph d="M181 716l-22 39q65 40 125 82q72 -51 124 -82l-21 -39q-42 22 -103 60q-74 -45 -103 -60zM90 0v666h375v-53h-316v-247h294v-53h-294v-260h317v-53h-376z" unicode="Ê" horiz-adv-x="536" glyph-name="Ecircumflex"/>
<glyph d="M336 734v60h66v-60h-66zM164 734v60h66v-60h-66zM90 0v666h375v-53h-316v-247h294v-53h-294v-260h317v-53h-376z" unicode="Ë" horiz-adv-x="536" glyph-name="Edieresis"/>
<glyph d="M157 757l-27 -41q-59 31 -124 77l29 44q49 -36 122 -80zM154 666v-666h-59v666h59z" unicode="Ì" horiz-adv-x="249" glyph-name="Igrave"/>
<glyph d="M123 716l-27 41q73 44 122 80l29 -44q-65 -46 -124 -77zM154 666v-666h-59v666h59z" unicode="Í" horiz-adv-x="249" glyph-name="Iacute"/>
<glyph d="M22 716l-22 39q65 40 125 82q72 -51 124 -82l-21 -39q-42 22 -103 60q-74 -45 -103 -60zM154 666v-666h-59v666h59z" unicode="Î" horiz-adv-x="249" glyph-name="Icircumflex"/>
<glyph d="M177 734v60h66v-60h-66zM5 734v60h66v-60h-66zM154 666v-666h-59v666h59z" unicode="Ï" horiz-adv-x="249" glyph-name="Idieresis"/>
<glyph d="M186 613v-249h141v-50h-141v-261h162q82 0 115 33.5t33 107.5v278q0 74 -33 107.5t-115 33.5h-162zM50 314v50h77v302h220q114 0 161 -52t47 -145v-272q0 -93 -47 -145t-161 -52h-220v314h-77z" unicode="Ð" horiz-adv-x="627" glyph-name="Eth"/>
<glyph d="M333 741q-40 18 -56 18q-26 0 -54 -28l-26 29q33 49 82 49q19 0 54 -16q41 -18 57 -18q26 0 48 25l29 -26q-30 -49 -77 -49q-22 0 -57 16zM462 0l-316 608v-608h-56v666h86l316 -609v609h56v-666h-86z" unicode="Ñ" horiz-adv-x="638" glyph-name="Ntilde"/>
<glyph d="M351 757l-27 -41q-59 31 -124 77l29 44q49 -36 122 -80zM308 43q93 0 133.5 36.5t40.5 110.5v286q0 74 -40.5 110.5t-133.5 36.5t-133.5 -36.5t-40.5 -110.5v-286q0 -74 40.5 -110.5t133.5 -36.5zM541 188q0 -92 -55.5 -145t-177.5 -53t-177.5 53t-55.5 145v290 q0 92 55.5 145t177.5 53t177.5 -53t55.5 -145v-290z" unicode="Ò" horiz-adv-x="616" glyph-name="Ograve"/>
<glyph d="M297 716l-27 41q73 44 122 80l29 -44q-65 -46 -124 -77zM308 43q93 0 133.5 36.5t40.5 110.5v286q0 74 -40.5 110.5t-133.5 36.5t-133.5 -36.5t-40.5 -110.5v-286q0 -74 40.5 -110.5t133.5 -36.5zM541 188q0 -92 -55.5 -145t-177.5 -53t-177.5 53t-55.5 145v290 q0 92 55.5 145t177.5 53t177.5 -53t55.5 -145v-290z" unicode="Ó" horiz-adv-x="616" glyph-name="Oacute"/>
<glyph d="M206 716l-22 39q65 40 125 82q72 -51 124 -82l-21 -39q-42 22 -103 60q-74 -45 -103 -60zM308 43q93 0 133.5 36.5t40.5 110.5v286q0 74 -40.5 110.5t-133.5 36.5t-133.5 -36.5t-40.5 -110.5v-286q0 -74 40.5 -110.5t133.5 -36.5zM541 188q0 -92 -55.5 -145t-177.5 -53 t-177.5 53t-55.5 145v290q0 92 55.5 145t177.5 53t177.5 -53t55.5 -145v-290z" unicode="Ô" horiz-adv-x="616" glyph-name="Ocircumflex"/>
<glyph d="M315 741q-40 18 -56 18q-26 0 -54 -28l-26 29q33 49 82 49q19 0 54 -16q41 -18 57 -18q26 0 48 25l29 -26q-30 -49 -77 -49q-22 0 -57 16zM308 43q93 0 133.5 36.5t40.5 110.5v286q0 74 -40.5 110.5t-133.5 36.5t-133.5 -36.5t-40.5 -110.5v-286q0 -74 40.5 -110.5 t133.5 -36.5zM541 188q0 -92 -55.5 -145t-177.5 -53t-177.5 53t-55.5 145v290q0 92 55.5 145t177.5 53t177.5 -53t55.5 -145v-290z" unicode="Õ" horiz-adv-x="616" glyph-name="Otilde"/>
<glyph d="M361 734v60h66v-60h-66zM189 734v60h66v-60h-66zM308 43q93 0 133.5 36.5t40.5 110.5v286q0 74 -40.5 110.5t-133.5 36.5t-133.5 -36.5t-40.5 -110.5v-286q0 -74 40.5 -110.5t133.5 -36.5zM541 188q0 -92 -55.5 -145t-177.5 -53t-177.5 53t-55.5 145v290q0 92 55.5 145 t177.5 53t177.5 -53t55.5 -145v-290z" unicode="Ö" horiz-adv-x="616" glyph-name="Odieresis"/>
<glyph d="M432 438l36 -36l-157 -158l157 -158l-36 -36l-158 157l-158 -157l-36 36l157 158l-157 158l36 36l158 -157z" unicode="×" horiz-adv-x="548" glyph-name="multiply"/>
<glyph d="M134 190q0 -54 20 -87l276 492q-44 28 -122 28q-93 0 -133.5 -36.5t-40.5 -110.5v-286zM308 43q93 0 133.5 36.5t40.5 110.5v286q0 52 -21 87l-275 -492q40 -28 122 -28zM541 705l-50 -88q50 -50 50 -139v-290q0 -92 -55.5 -145t-177.5 -53q-94 0 -149 32l-46 -82l-38 20 l49 89q-49 49 -49 139v290q0 92 55.5 145t177.5 53q92 0 149 -33l46 83z" unicode="Ø" horiz-adv-x="616" glyph-name="Oslash"/>
<glyph d="M357 757l-27 -41q-59 31 -124 77l29 44q49 -36 122 -80zM486 666h59v-477q0 -90 -57 -144.5t-173 -54.5t-173 54.5t-57 144.5v477h59v-477q0 -70 44 -108t127 -38t127 38t44 108v477z" unicode="Ù" horiz-adv-x="630" glyph-name="Ugrave"/>
<glyph d="M302 716l-27 41q73 44 122 80l29 -44q-65 -46 -124 -77zM486 666h59v-477q0 -90 -57 -144.5t-173 -54.5t-173 54.5t-57 144.5v477h59v-477q0 -70 44 -108t127 -38t127 38t44 108v477z" unicode="Ú" horiz-adv-x="630" glyph-name="Uacute"/>
<glyph d="M213 716l-22 39q65 40 125 82q72 -51 124 -82l-21 -39q-42 22 -103 60q-74 -45 -103 -60zM486 666h59v-477q0 -90 -57 -144.5t-173 -54.5t-173 54.5t-57 144.5v477h59v-477q0 -70 44 -108t127 -38t127 38t44 108v477z" unicode="Û" horiz-adv-x="630" glyph-name="Ucircumflex"/>
<glyph d="M368 734v60h66v-60h-66zM196 734v60h66v-60h-66zM486 666h59v-477q0 -90 -57 -144.5t-173 -54.5t-173 54.5t-57 144.5v477h59v-477q0 -70 44 -108t127 -38t127 38t44 108v477z" unicode="Ü" horiz-adv-x="630" glyph-name="Udieresis"/>
<glyph d="M262 716l-27 41q73 44 122 80l29 -44q-65 -46 -124 -77zM76 666l195 -402l196 402h61l-227 -461v-205h-59v205l-227 461h61z" unicode="Ý" horiz-adv-x="543" glyph-name="Yacute"/>
<glyph d="M440 390q0 54 -29.5 77.5t-93.5 23.5h-168v-306h168q64 0 93.5 23.5t29.5 77.5v104zM90 0v666h59v-122h167q183 0 183 -154v-104q0 -154 -183 -154h-167v-132h-59z" unicode="Þ" horiz-adv-x="544" glyph-name="Thorn"/>
<glyph d="M311 331q0 41 30 96q28 51 35.5 75.5t7.5 57.5q0 96 -114 96q-122 0 -122 -139v-517h-58v530q0 83 47.5 129.5t133.5 46.5q85 0 128 -41.5t43 -105.5q0 -67 -39 -137q-34 -61 -34 -93q0 -11 2.5 -18.5t20 -25t51.5 -39.5q61 -40 75.5 -62t14.5 -75q0 -62 -29 -90.5 t-115 -28.5q-58 0 -106 19l9 48q48 -15 98 -15q51 0 68 12.5t17 51.5q0 40 -12 57t-70 53q-51 32 -66.5 56.5t-15.5 58.5z" unicode="ß" horiz-adv-x="593" glyph-name="germandbls"/>
<glyph d="M297 587l-27 -41q-81 45 -133 83l29 44q52 -37 131 -86zM352 92v117h-142q-50 0 -68.5 -18t-18.5 -66q0 -46 15.5 -64.5t64.5 -18.5q78 0 149 50zM410 356v-356h-50l-4 38q-78 -48 -165 -48q-126 0 -126 136q0 75 34 105t109 30h144v95q0 49 -27 69t-88 20 q-64 0 -144 -16l-9 49q67 19 150 19q92 0 134 -35.5t42 -105.5z" unicode="à" horiz-adv-x="485" glyph-name="agrave"/>
<glyph d="M211 546l-27 41q79 49 131 86l29 -44q-52 -38 -133 -83zM352 92v117h-142q-50 0 -68.5 -18t-18.5 -66q0 -46 15.5 -64.5t64.5 -18.5q78 0 149 50zM410 356v-356h-50l-4 38q-78 -48 -165 -48q-126 0 -126 136q0 75 34 105t109 30h144v95q0 49 -27 69t-88 20 q-64 0 -144 -16l-9 49q67 19 150 19q92 0 134 -35.5t42 -105.5z" unicode="á" horiz-adv-x="485" glyph-name="aacute"/>
<glyph d="M140 547l-22 39q57 34 129 84q76 -54 128 -84l-21 -39q-14 8 -107 62q-72 -44 -107 -62zM352 92v117h-142q-50 0 -68.5 -18t-18.5 -66q0 -46 15.5 -64.5t64.5 -18.5q78 0 149 50zM410 356v-356h-50l-4 38q-78 -48 -165 -48q-126 0 -126 136q0 75 34 105t109 30h144v95 q0 49 -27 69t-88 20q-64 0 -144 -16l-9 49q67 19 150 19q92 0 134 -35.5t42 -105.5z" unicode="â" horiz-adv-x="485" glyph-name="acircumflex"/>
<glyph d="M252 568q-40 18 -56 18q-26 0 -54 -28l-26 29q33 49 82 49q19 0 54 -16q40 -18 57 -18q26 0 48 25l29 -26q-30 -49 -77 -49q-22 0 -57 16zM352 92v117h-142q-50 0 -68.5 -18t-18.5 -66q0 -46 15.5 -64.5t64.5 -18.5q78 0 149 50zM410 356v-356h-50l-4 38 q-78 -48 -165 -48q-126 0 -126 136q0 75 34 105t109 30h144v95q0 49 -27 69t-88 20q-64 0 -144 -16l-9 49q67 19 150 19q92 0 134 -35.5t42 -105.5z" unicode="ã" horiz-adv-x="485" glyph-name="atilde"/>
<glyph d="M310 558v66h62v-66h-62zM140 558v66h62v-66h-62zM352 92v117h-142q-50 0 -68.5 -18t-18.5 -66q0 -46 15.5 -64.5t64.5 -18.5q78 0 149 50zM410 356v-356h-50l-4 38q-78 -48 -165 -48q-126 0 -126 136q0 75 34 105t109 30h144v95q0 49 -27 69t-88 20q-64 0 -144 -16l-9 49 q67 19 150 19q92 0 134 -35.5t42 -105.5z" unicode="ä" horiz-adv-x="485" glyph-name="adieresis"/>
<glyph d="M276 605q0 34 -31 34q-15 0 -23.5 -9.5t-8.5 -24.5t8.5 -24.5t23.5 -9.5t23 9.5t8 24.5zM310 605q0 -27 -17.5 -45.5t-47.5 -18.5t-47.5 18.5t-17.5 45.5q0 28 17.5 45.5t47.5 17.5t47.5 -17.5t17.5 -45.5zM352 92v117h-142q-50 0 -68.5 -18t-18.5 -66q0 -46 15.5 -64.5 t64.5 -18.5q78 0 149 50zM410 356v-356h-50l-4 38q-78 -48 -165 -48q-126 0 -126 136q0 75 34 105t109 30h144v95q0 49 -27 69t-88 20q-64 0 -144 -16l-9 49q67 19 150 19q92 0 134 -35.5t42 -105.5z" unicode="å" horiz-adv-x="485" glyph-name="aring"/>
<glyph d="M213 42q83 0 148 53q-9 28 -9 72v45h-141q-50 0 -69 -16.5t-19 -67.5q0 -50 21 -68t69 -18zM410 322v-44h244v44q0 64 -27 94.5t-93 30.5t-95 -31t-29 -94zM234 497q106 0 147 -68q28 36 62 52t91 16q177 0 177 -177v-94h-301v-74q2 -59 30 -85t93 -26q80 0 158 20 l10 -47q-81 -24 -168 -24q-109 0 -151 59q-71 -59 -170 -59q-147 0 -147 139q0 78 33.5 106.5t109.5 28.5h144v68q0 113 -111 113q-61 0 -148 -16l-8 49q71 19 149 19z" unicode="æ" horiz-adv-x="771" glyph-name="ae"/>
<glyph d="M113 331v-175q0 -64 28.5 -89t97.5 -25q45 0 104 10l7 -48q-50 -12 -108 -14l-13 -60q13 3 28 3q32 0 52.5 -16t20.5 -47q0 -34 -25 -55.5t-70 -21.5q-38 0 -78 14l9 35q32 -9 61 -9q57 0 57 35q0 31 -47 31q-30 0 -58 -6l21 99q-77 8 -111 49.5t-34 116.5v171 q0 83 42.5 125.5t141.5 42.5q58 0 111 -14l-7 -48q-59 10 -104 10q-69 0 -97.5 -25t-28.5 -89z" unicode="ç" horiz-adv-x="400" glyph-name="ccedilla"/>
<glyph d="M293 587l-27 -41q-81 45 -133 83l29 44q52 -37 131 -86zM118 322v-44h244v44q0 64 -27 94.5t-93 30.5t-95 -31t-29 -94zM118 165q0 -67 28 -95.5t99 -28.5q69 0 154 23l10 -47q-76 -27 -168 -27q-98 0 -139.5 46t-41.5 131v153q0 177 182 177q177 0 177 -177v-94h-301 v-61z" unicode="è" horiz-adv-x="479" glyph-name="egrave"/>
<glyph d="M215 546l-27 41q79 49 131 86l29 -44q-52 -38 -133 -83zM118 322v-44h244v44q0 64 -27 94.5t-93 30.5t-95 -31t-29 -94zM118 165q0 -67 28 -95.5t99 -28.5q69 0 154 23l10 -47q-76 -27 -168 -27q-98 0 -139.5 46t-41.5 131v153q0 177 182 177q177 0 177 -177v-94h-301 v-61z" unicode="é" horiz-adv-x="479" glyph-name="eacute"/>
<glyph d="M145 547l-22 39q57 34 129 84q76 -54 128 -84l-21 -39q-14 8 -107 62q-72 -44 -107 -62zM118 322v-44h244v44q0 64 -27 94.5t-93 30.5t-95 -31t-29 -94zM118 165q0 -67 28 -95.5t99 -28.5q69 0 154 23l10 -47q-76 -27 -168 -27q-98 0 -139.5 46t-41.5 131v153 q0 177 182 177q177 0 177 -177v-94h-301v-61z" unicode="ê" horiz-adv-x="479" glyph-name="ecircumflex"/>
<glyph d="M295 558v66h62v-66h-62zM125 558v66h62v-66h-62zM118 322v-44h244v44q0 64 -27 94.5t-93 30.5t-95 -31t-29 -94zM118 165q0 -67 28 -95.5t99 -28.5q69 0 154 23l10 -47q-76 -27 -168 -27q-98 0 -139.5 46t-41.5 131v153q0 177 182 177q177 0 177 -177v-94h-301v-61z" unicode="ë" horiz-adv-x="479" glyph-name="edieresis"/>
<glyph d="M151 587l-27 -41q-81 45 -133 83l29 44q52 -37 131 -86zM143 0h-58v487h58v-487z" unicode="ì" horiz-adv-x="228" glyph-name="igrave"/>
<glyph d="M111 546l-27 41q79 49 131 86l29 -44q-52 -38 -133 -83zM143 0h-58v487h58v-487z" unicode="í" horiz-adv-x="228" glyph-name="iacute"/>
<glyph d="M8 547l-22 39q57 34 129 84q76 -54 128 -84l-21 -39q-14 8 -107 62q-72 -44 -107 -62zM143 0h-58v487h58v-487z" unicode="î" horiz-adv-x="228" glyph-name="icircumflex"/>
<glyph d="M168 558v66h62v-66h-62zM-2 558v66h62v-66h-62zM143 0h-58v487h58v-487z" unicode="ï" horiz-adv-x="228" glyph-name="idieresis"/>
<glyph d="M254 42q68 0 99.5 30.5t31.5 92.5v185q-19 24 -57 42t-80 18q-67 0 -96 -30t-29 -93v-122q0 -62 31.5 -92.5t99.5 -30.5zM195 547l73 57q-47 30 -118 52l15 45q87 -28 144 -65l64 51l25 -33l-55 -43q100 -83 100 -238v-206q0 -81 -46 -129t-143 -48t-143 48t-46 129v118 q0 90 47 133.5t131 43.5q81 0 142 -47q-2 102 -82 164l-84 -65z" unicode="ð" horiz-adv-x="513" glyph-name="eth"/>
<glyph d="M267 568q-40 18 -56 18q-26 0 -54 -28l-26 29q33 49 82 49q19 0 54 -16q40 -18 57 -18q26 0 48 25l29 -26q-30 -49 -77 -49q-22 0 -57 16zM441 0h-58v394q0 49 -53 49q-31 0 -87 -16.5t-100 -39.5v-387h-58v487h51l4 -44q44 21 100.5 37.5t97.5 16.5q103 0 103 -110v-387 z" unicode="ñ" glyph-name="ntilde"/>
<glyph d="M310 587l-27 -41q-81 45 -133 83l29 44q52 -37 131 -86zM380 165v157q0 62 -31.5 92.5t-99.5 30.5t-99.5 -30.5t-31.5 -92.5v-157q0 -62 31.5 -92.5t99.5 -30.5t99.5 30.5t31.5 92.5zM438 167q0 -81 -46 -129t-143 -48t-143 48t-46 129v153q0 81 46 129t143 48t143 -48 t46 -129v-153z" unicode="ò" horiz-adv-x="498" glyph-name="ograve"/>
<glyph d="M227 546l-27 41q79 49 131 86l29 -44q-52 -38 -133 -83zM380 165v157q0 62 -31.5 92.5t-99.5 30.5t-99.5 -30.5t-31.5 -92.5v-157q0 -62 31.5 -92.5t99.5 -30.5t99.5 30.5t31.5 92.5zM438 167q0 -81 -46 -129t-143 -48t-143 48t-46 129v153q0 81 46 129t143 48t143 -48 t46 -129v-153z" unicode="ó" horiz-adv-x="498" glyph-name="oacute"/>
<glyph d="M143 547l-22 39q57 34 129 84q76 -54 128 -84l-21 -39q-14 8 -107 62q-72 -44 -107 -62zM380 165v157q0 62 -31.5 92.5t-99.5 30.5t-99.5 -30.5t-31.5 -92.5v-157q0 -62 31.5 -92.5t99.5 -30.5t99.5 30.5t31.5 92.5zM438 167q0 -81 -46 -129t-143 -48t-143 48t-46 129 v153q0 81 46 129t143 48t143 -48t46 -129v-153z" unicode="ô" horiz-adv-x="498" glyph-name="ocircumflex"/>
<glyph d="M257 568q-40 18 -56 18q-26 0 -54 -28l-26 29q33 49 82 49q19 0 54 -16q40 -18 57 -18q26 0 48 25l29 -26q-30 -49 -77 -49q-22 0 -57 16zM380 165v157q0 62 -31.5 92.5t-99.5 30.5t-99.5 -30.5t-31.5 -92.5v-157q0 -62 31.5 -92.5t99.5 -30.5t99.5 30.5t31.5 92.5z M438 167q0 -81 -46 -129t-143 -48t-143 48t-46 129v153q0 81 46 129t143 48t143 -48t46 -129v-153z" unicode="õ" horiz-adv-x="498" glyph-name="otilde"/>
<glyph d="M303 558v66h62v-66h-62zM133 558v66h62v-66h-62zM380 165v157q0 62 -31.5 92.5t-99.5 30.5t-99.5 -30.5t-31.5 -92.5v-157q0 -62 31.5 -92.5t99.5 -30.5t99.5 30.5t31.5 92.5zM438 167q0 -81 -46 -129t-143 -48t-143 48t-46 129v153q0 81 46 129t143 48t143 -48t46 -129 v-153z" unicode="ö" horiz-adv-x="498" glyph-name="odieresis"/>
<glyph d="M252 366v76h62v-76h-62zM252 44v76h62v-76h-62zM486 269v-52h-406v52h406z" unicode="÷" horiz-adv-x="566" glyph-name="divide"/>
<glyph d="M380 165v157q0 44 -16 72l-201 -332q30 -20 86 -20q68 0 99.5 30.5t31.5 92.5zM118 165q0 -43 15 -72l202 332q-32 20 -86 20q-68 0 -99.5 -30.5t-31.5 -92.5v-157zM438 167q0 -81 -46 -129t-143 -48q-69 0 -114 26l-40 -66l-35 21l42 70q-42 45 -42 126v153q0 81 46 129 t143 48q67 0 114 -26l40 66l35 -22l-43 -70q43 -44 43 -125v-153z" unicode="ø" horiz-adv-x="498" glyph-name="oslash"/>
<glyph d="M309 587l-27 -41q-81 45 -133 83l29 44q52 -37 131 -86zM80 487h58v-394q0 -49 53 -49q31 0 87 16.5t100 39.5v387h58v-487h-51l-4 44q-44 -21 -100.5 -37.5t-97.5 -16.5q-103 0 -103 110v387z" unicode="ù" glyph-name="ugrave"/>
<glyph d="M236 546l-27 41q79 49 131 86l29 -44q-52 -38 -133 -83zM80 487h58v-394q0 -49 53 -49q31 0 87 16.5t100 39.5v387h58v-487h-51l-4 44q-44 -21 -100.5 -37.5t-97.5 -16.5q-103 0 -103 110v387z" unicode="ú" glyph-name="uacute"/>
<glyph d="M161 547l-22 39q57 34 129 84q76 -54 128 -84l-21 -39q-14 8 -107 62q-72 -44 -107 -62zM80 487h58v-394q0 -49 53 -49q31 0 87 16.5t100 39.5v387h58v-487h-51l-4 44q-44 -21 -100.5 -37.5t-97.5 -16.5q-103 0 -103 110v387z" unicode="û" glyph-name="ucircumflex"/>
<glyph d="M318 558v66h62v-66h-62zM148 558v66h62v-66h-62zM80 487h58v-394q0 -49 53 -49q31 0 87 16.5t100 39.5v387h58v-487h-51l-4 44q-44 -21 -100.5 -37.5t-97.5 -16.5q-103 0 -103 110v387z" unicode="ü" glyph-name="udieresis"/>
<glyph d="M205 546l-27 41q79 49 131 86l29 -44q-52 -38 -133 -83zM434 487l-165 -487l-72 -197h-57l73 197h-33l-165 487h59l150 -446l151 446h59z" unicode="ý" horiz-adv-x="444" glyph-name="yacute"/>
<glyph d="M148 383v-324q82 -17 152 -17q47 0 68.5 24t21.5 74v222q0 44 -18 63.5t-66 19.5q-81 0 -158 -62zM90 -209v895l58 8v-252q73 55 162 55q138 0 138 -135v-222q0 -150 -150 -150q-69 0 -150 16v-203z" unicode="þ" horiz-adv-x="518" glyph-name="thorn"/>
</font>
</defs>
</svg>
